# xmcd CD database file
#
# Track frame offsets:
#	150
#	29546
#	58500
#	89711
#	129434
#	151052
#	189385
#	226771
#
# Disc length: 3363 seconds
#
# Revision: 0
# Processed by: cddbd v1.4PL0 Copyright (c) Steve Scherf et al.
# Submitted via: CDex 1.50beta10
#
DISCID=5d0d2108
DTITLE=Oliver Kent and Selim - A Pure Formality
DYEAR=1900
DGENRE=Jazz
TTITLE0=A Pure Formality
TTITLE1=Hidden Message
TTITLE2=OverJoyed
TTITLE3=Last Night When We Were Young
TTITLE4=And Not Like Before
TTITLE5=Un Poco Loco
TTITLE6=Faces Of Hope
TTITLE7=Zone Of The Enders
EXTD=
EXTT0=
EXTT1=
EXTT2=
EXTT3=
EXTT4=
EXTT5=
EXTT6=
EXTT7=
PLAYORDER=
